# xmcd
#
# Track frame offsets: 
#        150
#        15181
#        31900
#        46110
#        61004
#        75554
#        89016
#        103339
#        120459
#        142375
#        154069
#        172730
#        189592
#        207264
#        218355
#        238387
#        250938
#        266222
#        277874
#        289426
#        302446
#
# Disc length: 4260 seconds
#
# Revision: 0
# Processed by: cddbd v1.5.2PL0 Copyright (c) Steve Scherf et al.
# Submitted via: ExactAudioCopy v0.99pb4
#
DISCID=2310a215
DTITLE=John Hammond - Source Point I'm Satisfied
DYEAR=1972
DGENRE=Blues
TTITLE0=I Got Love If You Want It
TTITLE1=Hoo-Doo Blues
TTITLE2=Mellow Down Easy
TTITLE3=Takin' Care Of Business
TTITLE4=She Moves Me
TTITLE5=Let's Go Home
TTITLE6=Tell Me Mama
TTITLE7=No Place To Go
TTITLE8=My First Plea
TTITLE9=Junco Partner
TTITLE10=As The Years Go Passing By
TTITLE11=Outside Your Door
TTITLE12=If You Ever Need A Man
TTITLE13=Man In The Road
TTITLE14=Mama Tain't Long For Day
TTITLE15=Further Up The Road
TTITLE16=I'm Satisfied
TTITLE17=I You Got The Feelin'
TTITLE18=Ride Till I Die (Jockey Blues)
TTITLE19=I'm Gonna Leave
TTITLE20=From Four Until Late
EXTD=
EXTT0=
EXTT1=
EXTT2=
EXTT3=
EXTT4=
EXTT5=
EXTT6=
EXTT7=
EXTT8=
EXTT9=
EXTT10=
EXTT11=
EXTT12=
EXTT13=
EXTT14=
EXTT15=
EXTT16=
EXTT17=
EXTT18=
EXTT19=
EXTT20=
PLAYORDER=
